<svg width="248" height="150" viewBox="0 0 248 150" fill="none" xmlns="http://www.w3.org/2000/svg">
<path d="M2.49999 16.165L17.2178 2.5L229.608 2.49999L244.119 16.166L245.486 133.301L229.645 147.5L17.2412 147.5L2.5 133.341L2.49999 16.165Z" fill="#810000" fill-opacity="0.8" stroke="#FF0000" stroke-width="5"/>
<g filter="url(#filter0_d_2028_2150)">
<path d="M39.3029 52.9999L42.9989 37.0399H55.0229L54.0149 41.3599H46.7669L46.4069 42.8959H53.5829L52.6229 47.0959H45.4469L45.0869 48.6799H52.3349L51.3269 52.9999H39.3029ZM60.2204 53.2639C54.1244 53.2639 53.5724 52.2319 54.6284 47.7199H59.1644C58.8044 49.2079 59.0924 49.5199 61.0604 49.5199C63.1724 49.5199 63.5804 49.2799 63.7724 48.3919C63.9644 47.5999 63.7964 47.3599 63.1004 47.2399L58.5404 46.6639C55.8524 46.1839 55.1804 45.1999 55.9724 41.7679C56.9084 37.7599 58.4204 36.7759 63.9164 36.7759C69.4124 36.7759 70.5404 37.7599 69.4844 42.2479H64.9484C65.3084 40.7599 65.0684 40.4959 63.0764 40.4959C61.2284 40.4959 60.8924 40.7119 60.6764 41.6239C60.5084 42.4159 60.6764 42.6559 61.8284 42.8239L65.9324 43.3519C68.7404 43.8319 69.2924 44.7919 68.5244 48.1039C67.6124 52.1119 66.1964 53.2639 60.2204 53.2639ZM76.4086 53.2639C70.1926 53.2639 68.9926 51.7279 70.5526 44.9839C72.0886 38.3119 74.0086 36.7519 80.2246 36.7519C86.6086 36.7519 87.7366 38.0239 86.3926 43.8559H81.5446C82.0486 41.7199 81.7126 41.3119 79.2166 41.3119C76.7686 41.3119 76.1206 41.8399 75.4006 45.0079C74.6566 48.1999 75.0646 48.7279 77.5126 48.7279C80.0086 48.7279 80.5126 48.3199 81.0166 46.1599H85.8646C84.4966 52.0159 82.7926 53.2639 76.4086 53.2639ZM95.5904 52.9999L94.4624 48.7759H91.6304L90.6464 52.9999H85.8704L89.5664 37.0399H97.3904C102.502 37.0399 103.75 38.0719 102.622 42.8959C101.974 45.7759 101.086 47.3119 99.4064 48.0799L100.678 52.9999H95.5904ZM95.5424 44.7199C97.1504 44.7199 97.4144 44.4319 97.7744 42.8959C98.1344 41.3839 97.9904 41.0959 96.3824 41.0959H93.4064L92.5664 44.7199H95.5424ZM102.561 52.9999L106.257 37.0399H118.281L117.273 41.3599H110.025L109.665 42.8959H116.841L115.881 47.0959H108.705L108.345 48.6799H115.593L114.585 52.9999H102.561ZM121.39 52.9999L119.974 37.0399H125.182L126.022 49.3039L132.526 37.0399H137.734L128.926 52.9999H121.39ZM135.49 52.9999L139.186 37.0399H151.21L150.202 41.3599H142.954L142.594 42.8959H149.77L148.81 47.0959H141.634L141.274 48.6799H148.522L147.514 52.9999H135.49ZM161.063 53.2639C155.183 53.2639 154.031 51.9199 155.279 46.5679L157.487 37.0399H162.239L160.031 46.5679C159.623 48.2959 160.079 48.7279 162.119 48.7279C164.159 48.7279 164.807 48.2959 165.215 46.5679L167.423 37.0399H172.175L169.967 46.5679C168.719 51.9199 166.919 53.2639 161.063 53.2639ZM170.409 52.9999L174.105 37.0399H181.954L181.714 47.7679L186.466 37.0399H194.314L190.618 52.9999H185.866L188.338 42.2719L183.298 52.9999H177.73L177.658 42.2719L175.186 52.9999H170.409ZM191.933 52.9999L200.213 37.0399H207.581L208.469 52.9999H203.429L203.357 50.5039H198.197L196.973 52.9999H191.933ZM200.069 46.6879H203.285L203.117 40.4479L200.069 46.6879ZM52.0267 72.9999L55.7227 57.0399H63.5707L63.3307 67.7679L68.0827 57.0399H75.9307L72.2347 72.9999H67.4827L69.9547 62.2719L64.9147 72.9999H59.3467L59.2747 62.2719L56.8027 72.9999H52.0267ZM74.3186 72.9999L78.0146 57.0399H90.0386L89.0306 61.3599H81.7826L81.4226 62.8959H88.5986L87.6386 67.0959H80.4626L80.1026 68.6799H87.3506L86.3426 72.9999H74.3186ZM88.6595 72.9999L92.3555 57.0399H99.1715L101.284 67.1679L103.636 57.0399H108.412L104.716 72.9999H97.8995L95.7635 62.8719L93.4355 72.9999H88.6595ZM113.283 73.2639C107.187 73.2639 106.635 72.2319 107.691 67.7199H112.227C111.867 69.2079 112.155 69.5199 114.123 69.5199C116.235 69.5199 116.643 69.2799 116.835 68.3919C117.027 67.5999 116.859 67.3599 116.163 67.2399L111.603 66.6639C108.915 66.1839 108.243 65.1999 109.035 61.7679C109.971 57.7599 111.483 56.7759 116.979 56.7759C122.475 56.7759 123.603 57.7599 122.547 62.2479H118.011C118.371 60.7599 118.131 60.4959 116.139 60.4959C114.291 60.4959 113.955 60.7119 113.739 61.6239C113.571 62.4159 113.739 62.6559 114.891 62.8239L118.995 63.3519C121.803 63.8319 122.355 64.7919 121.587 68.1039C120.675 72.1119 119.259 73.2639 113.283 73.2639ZM121.176 72.9999L129.456 57.0399H136.824L137.712 72.9999H132.672L132.6 70.5039H127.44L126.216 72.9999H121.176ZM129.312 66.6879H132.528L132.36 60.4479L129.312 66.6879ZM146.125 73.2639C139.429 73.2639 138.181 71.6799 139.717 65.0079C141.253 58.3599 143.245 56.7759 149.941 56.7759C156.685 56.7759 158.005 57.9759 156.853 62.8959H151.981C152.269 61.6959 151.885 61.2639 148.909 61.2639C146.029 61.2639 145.261 61.9359 144.565 65.0079C143.869 68.0559 144.301 68.7759 147.205 68.7759C149.941 68.7759 150.589 68.5359 150.925 67.4559H147.397L148.309 63.4959H156.709L155.869 67.1679C154.765 71.9919 152.845 73.2639 146.125 73.2639ZM156.397 72.9999L160.093 57.0399H172.117L171.109 61.3599H163.861L163.501 62.8959H170.677L169.717 67.0959H162.541L162.181 68.6799H169.429L168.421 72.9999H156.397ZM170.738 72.9999L174.434 57.0399H182.282L182.042 67.7679L186.794 57.0399H194.642L190.946 72.9999H186.194L188.666 62.2719L183.626 72.9999H178.058L177.986 62.2719L175.514 72.9999H170.738ZM55.9904 92.9999L59.6864 77.0399H71.7104L70.7024 81.3599H63.4544L63.0944 82.8959H70.2704L69.3104 87.0959H62.1344L61.7744 88.6799H69.0224L68.0144 92.9999H55.9904ZM74.3392 92.9999L78.0352 77.0399H85.8592C90.9712 77.0399 92.2192 78.0719 91.0912 82.8959C89.9872 87.7439 88.2592 88.7759 83.1472 88.7759H80.0992L79.1152 92.9999H74.3392ZM84.0112 84.7199C85.6192 84.7199 85.8832 84.4319 86.2432 82.8959C86.6032 81.3839 86.4592 81.0959 84.8512 81.0959H81.8752L81.0352 84.7199H84.0112ZM88.3396 92.9999L96.6196 77.0399H103.988L104.876 92.9999H99.8356L99.7636 90.5039H94.6036L93.3796 92.9999H88.3396ZM96.4756 86.6879H99.6916L99.5236 80.4479L96.4756 86.6879ZM115.887 92.9999L114.759 88.7759H111.927L110.943 92.9999H106.167L109.863 77.0399H117.687C122.799 77.0399 124.047 78.0719 122.919 82.8959C122.271 85.7759 121.383 87.3119 119.703 88.0799L120.975 92.9999H115.887ZM115.839 84.7199C117.447 84.7199 117.711 84.4319 118.071 82.8959C118.431 81.3839 118.287 81.0959 116.679 81.0959H113.703L112.863 84.7199H115.839ZM126.401 92.9999L129.089 81.3599H124.457L125.465 77.0399H139.481L138.473 81.3599H133.841L131.153 92.9999H126.401ZM137.457 92.9999L141.154 77.0399H145.93L142.234 92.9999H137.457ZM144.253 92.9999L147.949 77.0399H152.725L149.989 88.8239H156.997L156.037 92.9999H144.253ZM157.801 92.9999L161.497 77.0399H166.201L164.857 82.7999H171.505L172.849 77.0399H177.553L173.857 92.9999H169.153L170.521 87.0959H163.873L162.505 92.9999H157.801ZM175.246 92.9999L183.526 77.0399H190.894L191.782 92.9999H186.742L186.67 90.5039H181.51L180.286 92.9999H175.246ZM183.382 86.6879H186.598L186.43 80.4479L183.382 86.6879ZM47.0256 113L50.7216 97.0399H62.7456L61.7376 101.36H54.4896L54.1296 102.896H61.3056L60.3456 107.096H53.1696L52.8096 108.68H60.0576L59.0496 113H47.0256ZM67.9431 113.264C61.8471 113.264 61.2951 112.232 62.3511 107.72H66.8871C66.5271 109.208 66.8151 109.52 68.7831 109.52C70.8951 109.52 71.3031 109.28 71.4951 108.392C71.6871 107.6 71.5191 107.36 70.8231 107.24L66.2631 106.664C63.5751 106.184 62.9031 105.2 63.6951 101.768C64.6311 97.7599 66.1431 96.7759 71.6391 96.7759C77.1351 96.7759 78.2631 97.7599 77.2071 102.248H72.6711C73.0311 100.76 72.7911 100.496 70.7991 100.496C68.9511 100.496 68.6151 100.712 68.3991 101.624C68.2311 102.416 68.3991 102.656 69.5511 102.824L73.6551 103.352C76.4631 103.832 77.0151 104.792 76.2471 108.104C75.3351 112.112 73.9191 113.264 67.9431 113.264ZM80.5219 113L83.2099 101.36H78.5779L79.5859 97.0399H93.6019L92.5939 101.36H87.9619L85.2739 113H80.5219ZM91.6506 113L95.3466 97.0399H107.371L106.363 101.36H99.1146L98.7546 102.896H105.931L104.971 107.096H97.7946L97.4346 108.68H104.683L103.675 113H91.6506ZM109.999 113L113.695 97.0399H121.519C126.631 97.0399 127.879 98.0719 126.751 102.896C125.647 107.744 123.919 108.776 118.807 108.776H115.759L114.775 113H109.999ZM119.671 104.72C121.279 104.72 121.543 104.432 121.903 102.896C122.263 101.384 122.119 101.096 120.511 101.096H117.535L116.695 104.72H119.671ZM133.568 113.288C127.112 113.288 125.816 111.92 127.424 104.984C129.008 98.1199 130.928 96.7519 137.384 96.7519C143.864 96.7519 145.136 98.1199 143.552 104.984C141.944 111.92 140.048 113.288 133.568 113.288ZM134.624 108.704C137.336 108.704 137.984 108.104 138.704 105.008C139.4 101.936 139.04 101.336 136.328 101.336C133.64 101.336 132.968 101.936 132.272 105.008C131.552 108.104 131.936 108.704 134.624 108.704ZM149.857 113.264C143.761 113.264 143.209 112.232 144.265 107.72H148.801C148.441 109.208 148.729 109.52 150.697 109.52C152.809 109.52 153.217 109.28 153.409 108.392C153.601 107.6 153.433 107.36 152.737 107.24L148.177 106.664C145.489 106.184 144.817 105.2 145.609 101.768C146.545 97.7599 148.057 96.7759 153.553 96.7759C159.049 96.7759 160.177 97.7599 159.121 102.248H154.585C154.945 100.76 154.705 100.496 152.713 100.496C150.865 100.496 150.529 100.712 150.313 101.624C150.145 102.416 150.313 102.656 151.465 102.824L155.569 103.352C158.377 103.832 158.929 104.792 158.161 108.104C157.249 112.112 155.833 113.264 149.857 113.264ZM162.436 113L165.124 101.36H160.492L161.5 97.0399H175.516L174.508 101.36H169.876L167.188 113H162.436ZM170.617 113L178.897 97.0399H186.265L187.153 113H182.113L182.041 110.504H176.881L175.657 113H170.617ZM178.753 106.688H181.969L181.801 100.448L178.753 106.688ZM188.445 113L192.141 97.0399H196.917L194.181 108.824H201.189L200.229 113H188.445Z" fill="white"/>
</g>
<defs>
<filter id="filter0_d_2028_2150" x="37.3027" y="36.7518" width="171.167" height="77.3996" filterUnits="userSpaceOnUse" color-interpolation-filters="sRGB">
<feFlood flood-opacity="0" result="BackgroundImageFix"/>
<feColorMatrix in="SourceAlpha" type="matrix" values="0 0 0 0 0 0 0 0 0 0 0 0 0 0 0 0 0 0 127 0" result="hardAlpha"/>
<feOffset dx="-2" dy="0.863636"/>
<feComposite in2="hardAlpha" operator="out"/>
<feColorMatrix type="matrix" values="0 0 0 0 0.627203 0 0 0 0 0.627203 0 0 0 0 0.627203 0 0 0 1 0"/>
<feBlend mode="normal" in2="BackgroundImageFix" result="effect1_dropShadow_2028_2150"/>
<feBlend mode="normal" in="SourceGraphic" in2="effect1_dropShadow_2028_2150" result="shape"/>
</filter>
</defs>
</svg>
