<svg width="55" height="55" viewBox="0 0 55 55" fill="none" xmlns="http://www.w3.org/2000/svg">
<rect x="1.06055" y="1" width="52.9398" height="52.9398" rx="26.4699" fill="#F40009" stroke="#F40009" stroke-width="2"/>
<path fill-rule="evenodd" clip-rule="evenodd" d="M18.0259 26.9205C18.0259 21.3235 22.2324 16.7863 27.4214 16.7863V13.4083C20.5027 13.4083 14.894 19.4579 14.894 26.9205C14.894 34.3831 20.5027 40.4327 27.4214 40.4327C34.0997 40.4327 39.5575 34.796 39.9286 27.6927H43.4628L38.444 19.9714L33.4252 27.6927H36.79C36.4242 32.9289 32.3695 37.0547 27.4214 37.0547C22.2324 37.0547 18.0259 32.5174 18.0259 26.9205Z" fill="white"/>
<path d="M31.4946 26.9204L25.3176 31.9393L25.3176 21.9016L31.4946 26.9204Z" fill="white"/>
</svg>
